HIERARCHY
ROOT Hips
{
	OFFSET -0.001795 -0.223333 0.028219
	CHANNELS 6 Xposition Yposition Zposition Zrotation Yrotation Xrotation 
	JOINT LeftUpLeg
	{
		OFFSET 0.069520 -0.091406 -0.006815
		CHANNELS 3 Zrotation Yrotation Xrotation
		JOINT LeftLeg
		{
			OFFSET 0.034277 -0.375199 -0.004496
			CHANNELS 3 Zrotation Yrotation Xrotation
			JOINT LeftFoot
			{
				OFFSET -0.013596 -0.397961 -0.043693
				CHANNELS 3 Zrotation Yrotation Xrotation
				JOINT LeftToe
				{
					OFFSET 0.026358 -0.055791 0.119288
					CHANNELS 3 Zrotation Yrotation Xrotation
					End Site
					{
						OFFSET 0.000000 0.000000 0.000000
					}
				}
			}
		}
	}
	JOINT RightUpLeg
	{
		OFFSET -0.067670 -0.090522 -0.004320
		CHANNELS 3 Zrotation Yrotation Xrotation
		JOINT RightLeg
		{
			OFFSET -0.038290 -0.382569 -0.008850
			CHANNELS 3 Zrotation Yrotation Xrotation
			JOINT RightFoot
			{
				OFFSET 0.015774 -0.398415 -0.042312
				CHANNELS 3 Zrotation Yrotation Xrotation
				JOINT RightToe
				{
					OFFSET -0.025372 -0.048144 0.123348
					CHANNELS 3 Zrotation Yrotation Xrotation
					End Site
					{
						OFFSET 0.000000 0.000000 0.000000
					}
				}
			}
		}
	}
	JOINT Spine
	{
		OFFSET -0.002533 0.108963 -0.026696
		CHANNELS 3 Zrotation Yrotation Xrotation
		JOINT Spine1
		{
			OFFSET 0.005487 0.135180 0.001092
			CHANNELS 3 Zrotation Yrotation Xrotation
			JOINT Spine2
			{
				OFFSET 0.001457 0.052922 0.025425
				CHANNELS 3 Zrotation Yrotation Xrotation
				JOINT Neck
				{
					OFFSET -0.002778 0.213870 -0.042857
					CHANNELS 3 Zrotation Yrotation Xrotation
					JOINT Head
					{
						OFFSET 0.005152 0.064970 0.051349
						CHANNELS 3 Zrotation Yrotation Xrotation
						End Site
						{
							OFFSET 0.000000 0.000000 0.000000
						}
					}
				}
				JOINT LeftShoulder
				{
					OFFSET 0.078845 0.121749 -0.034090
					CHANNELS 3 Zrotation Yrotation Xrotation
					JOINT LeftArm
					{
						OFFSET 0.090977 0.030469 -0.008868
						CHANNELS 3 Zrotation Yrotation Xrotation
						JOINT LeftForeArm
						{
							OFFSET 0.259612 -0.012772 -0.027456
							CHANNELS 3 Zrotation Yrotation Xrotation
							JOINT LeftHand
							{
								OFFSET 0.249234 0.008986 -0.001171
								CHANNELS 3 Zrotation Yrotation Xrotation
								End Site
								{
									OFFSET 0.000000 0.000000 0.000000
								}
							}
						}
					}
				}
				JOINT RightShoulder
				{
					OFFSET -0.081759 0.118833 -0.038615
					CHANNELS 3 Zrotation Yrotation Xrotation
					JOINT RightArm
					{
						OFFSET -0.096012 0.032551 -0.009143
						CHANNELS 3 Zrotation Yrotation Xrotation
						JOINT RightForeArm
						{
							OFFSET -0.253742 -0.013329 -0.021401
							CHANNELS 3 Zrotation Yrotation Xrotation
							JOINT RightHand
							{
								OFFSET -0.255298 0.007772 -0.005559
								CHANNELS 3 Zrotation Yrotation Xrotation
								End Site
								{
									OFFSET 0.000000 0.000000 0.000000
								}
							}
						}
					}
				}
			}
		}
	}
}
MOTION
Frames: 9
Frame Time: 0.050000
0.016490 0.926180 -0.032025 -1.059732 -6.436607 4.152852 -2.375952 -1.414877 -13.580206 0.021377 -0.326547 16.344880 6.245080 13.338416 2.017099 0.000000 0.000000 0.000000 5.732261 3.285187 -21.618203 -1.682681 2.312618 27.628545 -4.591543 -13.031735 5.517081 0.000000 0.000000 0.000000 6.485998 -1.483892 15.222347 -0.222821 0.115586 0.509109 -6.167558 4.609289 5.142023 8.323104 -2.536668 -22.755668 0.000000 0.000000 0.000000 -23.123504 -10.156554 2.851025 -44.082779 1.387069 -5.436753 -5.515198 -27.215054 2.243245 0.000000 0.000000 0.000000 22.028876 2.154910 -0.049469 51.991191 -7.127889 -8.145938 10.319741 38.406615 5.055822 0.000000 0.000000 0.000000 
0.018948 0.913753 -0.032877 -1.199788 -5.581394 6.032995 -2.615355 -1.951347 -18.867528 0.479155 -0.564928 22.051540 6.561012 13.696346 -1.049010 0.000000 0.000000 0.000000 5.126818 3.964199 -26.307128 -0.311034 2.172935 32.698658 -5.643624 -14.859630 3.329033 0.000000 0.000000 0.000000 6.469534 -1.853952 19.052762 0.080422 -0.016924 -0.809758 -6.167033 4.717612 5.389187 9.144200 -2.400675 -25.823964 0.000000 0.000000 0.000000 -23.764835 -10.139717 2.671521 -43.811193 1.727954 -5.442840 -4.615148 -26.336517 1.944406 0.000000 0.000000 0.000000 21.530188 1.518729 -0.221629 53.071745 -6.843076 -8.195466 9.014111 38.863172 4.753606 0.000000 0.000000 0.000000 
0.022000 0.898908 -0.031569 -1.204262 -5.251988 8.454959 -2.427937 -2.489644 -25.186220 -0.131772 -0.433257 28.726514 7.035867 14.474253 -3.571739 0.000000 0.000000 0.000000 3.960572 4.723273 -32.313815 1.429899 1.847224 38.921349 -6.317792 -16.265303 1.952609 0.000000 0.000000 0.000000 6.230636 -2.087083 21.816405 0.687354 -0.278288 -1.317073 -6.548476 4.595112 4.545462 8.729609 -1.741335 -28.315203 0.000000 0.000000 0.000000 -24.678630 -10.677640 2.911537 -42.659760 3.141071 -5.619452 -2.502523 -25.515908 1.409306 0.000000 0.000000 0.000000 22.320431 1.763178 -0.076913 52.855227 -6.726541 -7.995030 8.025003 38.264897 4.318832 0.000000 0.000000 0.000000 
0.025316 0.881105 -0.025013 -1.349801 -4.071608 10.415862 -2.186474 -3.055510 -31.524082 -0.638291 -0.403129 36.789396 7.267535 14.732136 -5.523278 0.000000 0.000000 0.000000 3.031094 5.242969 -37.598545 3.712825 0.857824 46.044706 -7.721630 -19.279682 -2.280877 0.000000 0.000000 0.000000 5.496615 -2.268769 25.244308 1.185748 -0.468564 -2.280229 -6.681390 5.360275 4.250106 9.693984 -1.530338 -31.273725 0.000000 0.000000 0.000000 -23.891311 -12.163528 3.352317 -43.986206 2.146441 -5.298048 -0.737810 -26.094557 0.978717 0.000000 0.000000 0.000000 23.980071 2.502015 0.802812 53.376834 -5.003888 -7.397260 3.905124 37.422096 3.006415 0.000000 0.000000 0.000000 
0.027749 0.859894 -0.007990 -1.897239 -3.684414 11.564924 -1.719403 -3.239404 -34.842471 -0.954347 -0.319787 45.104405 6.997686 12.939148 -13.101570 0.000000 0.000000 0.000000 2.562891 5.521799 -40.471755 6.753467 -0.859964 52.401281 -8.808228 -22.216247 -7.873781 0.000000 0.000000 0.000000 5.229831 -2.373431 27.024196 1.851158 -0.717505 -3.201441 -6.858146 6.890258 3.508837 10.297636 -1.523941 -31.469576 0.000000 0.000000 0.000000 -26.283527 -13.227753 3.271975 -42.055387 2.958132 -4.999075 -2.598259 -26.081416 1.354294 0.000000 0.000000 0.000000 28.986287 2.931939 1.765821 50.026859 -2.490021 -6.203590 -0.656168 36.581587 1.638586 0.000000 0.000000 0.000000 
0.029030 0.843056 0.022315 -1.797077 -3.154883 12.200782 -1.498042 -3.299783 -35.657697 -1.296176 -0.231023 49.831793 6.540382 10.488820 -17.199570 0.000000 0.000000 0.000000 1.283029 5.345944 -42.592832 8.769819 -2.446089 58.725506 -8.185374 -20.451421 -10.440507 0.000000 0.000000 0.000000 5.054791 -2.327670 26.441742 2.680275 -1.097382 -2.374441 -7.185598 7.412563 2.867666 11.252142 -1.389804 -33.945100 0.000000 0.000000 0.000000 -29.572317 -13.827640 3.096287 -39.381825 -0.273750 -3.399498 -1.813196 -26.723834 1.190465 0.000000 0.000000 0.000000 29.339710 4.272051 3.097304 49.155854 1.990034 -4.494941 -4.246332 37.272322 0.648887 0.000000 0.000000 0.000000 
0.029755 0.841037 0.067305 -2.453287 -3.486771 11.733960 -0.666658 -2.666539 -31.050922 -1.567879 0.063660 47.518169 6.467798 9.992484 -18.626550 0.000000 0.000000 0.000000 2.488691 5.267926 -39.178950 9.334541 -2.664301 58.734523 -8.552867 -21.538383 -12.605955 0.000000 0.000000 0.000000 5.066631 -2.139383 24.233051 3.093032 -1.244928 -3.172648 -6.390426 6.693858 5.115283 8.452932 -0.175710 -36.256329 0.000000 0.000000 0.000000 -26.392852 -13.282634 3.441936 -42.820631 -7.138481 -1.896335 0.532122 -30.288752 0.736186 0.000000 0.000000 0.000000 24.468110 6.552959 3.989633 50.253187 8.712268 -1.873657 -7.410462 41.692274 -0.305493 0.000000 0.000000 0.000000 
0.029370 0.868676 0.134469 -3.224889 -2.950070 10.209764 0.565797 -1.727547 -21.368905 -2.113195 0.232655 40.976448 4.487797 6.249304 -11.682811 0.000000 0.000000 0.000000 4.394061 4.448076 -31.220321 7.627621 -1.536830 55.550277 -7.171980 -17.379598 -6.273375 0.000000 0.000000 0.000000 5.601308 -1.797275 18.184582 3.862446 -1.624956 -2.429485 -5.797946 4.812360 6.179351 6.393252 0.312421 -35.802738 0.000000 0.000000 0.000000 -21.072580 -7.297430 0.854935 -47.513124 -10.475468 -1.352482 -1.350164 -44.207052 1.887542 0.000000 0.000000 0.000000 17.092608 5.904887 2.679332 53.410911 10.132498 -0.986941 -5.253737 47.913041 0.436691 0.000000 0.000000 0.000000 
0.025233 0.938331 0.229608 -2.915594 -0.746495 8.741921 0.813531 -0.778819 -9.061966 -0.569184 -0.677798 28.304716 -2.683857 0.751819 13.773784 0.000000 0.000000 0.000000 5.125293 2.125906 -16.061927 5.562421 -0.825115 39.917023 -3.969032 -11.252343 4.965397 0.000000 0.000000 0.000000 7.331199 -1.157003 8.386917 2.280194 -0.901584 -3.298089 -5.265802 5.033908 8.656837 5.677938 0.051610 -29.945910 0.000000 0.000000 0.000000 -15.440299 -6.466397 0.685342 -51.521906 -4.581781 -4.266976 -24.488312 -63.230111 16.728912 0.000000 0.000000 0.000000 9.057738 -2.089868 -1.047486 59.949437 5.864743 -2.836919 8.440629 57.739220 8.619578 0.000000 0.000000 0.000000 
